<?xml version="1.0" encoding="UTF-8" standalone="no"?>
<!DOCTYPE svg PUBLIC "-//W3C//DTD SVG 1.1//EN" "http://www.w3.org/Graphics/SVG/1.1/DTD/svg11.dtd">
<svg width="100%" height="100%" viewBox="0 0 1531 286" version="1.1" xmlns="http://www.w3.org/2000/svg" xmlns:xlink="http://www.w3.org/1999/xlink" xml:space="preserve" xmlns:serif="http://www.serif.com/" style="fill-rule:evenodd;clip-rule:evenodd;stroke-linecap:round;stroke-linejoin:round;stroke-miterlimit:1.5;">
    <g id="Artboard1" transform="matrix(0.883193,0,0,0.447258,-104.126,-95.0606)">
        <rect x="117.897" y="212.541" width="1732.83" height="637.866" style="fill:none;"/>
        <g transform="matrix(1.12112,0,0,2.05004,-133.838,-523.593)">
            <path d="M1719.27,442.425C1719.27,427.963 1713.94,414.092 1704.48,403.865C1695.01,393.639 1682.16,387.893 1668.77,387.893L300.083,387.893C286.69,387.893 273.846,393.639 264.376,403.865C254.906,414.092 249.586,427.963 249.586,442.425L249.586,605.677C249.586,629.771 267.673,649.303 289.983,649.303L1668.77,649.303C1682.16,649.303 1695.01,643.558 1704.48,633.331C1713.94,623.104 1719.27,609.234 1719.27,594.771C1719.27,550.074 1719.27,487.122 1719.27,442.425Z" style="fill:rgb(154,154,154);"/>
        </g>
        <g transform="matrix(1.12112,0,0,2.05004,-125.568,-539.925)">
            <path d="M1719.27,442.425C1719.27,427.963 1713.94,414.092 1704.48,403.865C1695.01,393.639 1682.16,387.893 1668.77,387.893L300.083,387.893C286.69,387.893 273.846,393.639 264.376,403.865C254.906,414.092 249.586,427.963 249.586,442.425L249.586,605.677C249.586,629.771 267.673,649.303 289.983,649.303L1668.77,649.303C1682.16,649.303 1695.01,643.558 1704.48,633.331C1713.94,623.104 1719.27,609.234 1719.27,594.771L1719.27,442.425Z" style="fill:rgb(202,202,202);"/>
        </g>
        <g transform="matrix(1.3929,0,0,2.51274,-555.231,-774.873)">
            <path d="M1550.44,533.211C1546.28,536.011 1541.27,537.643 1535.89,537.643C1521.46,537.643 1509.75,525.933 1509.75,511.508C1509.75,497.083 1521.46,485.373 1535.89,485.373C1538.25,485.373 1540.55,485.688 1542.72,486.307C1532.32,488.499 1524.48,498.126 1524.48,509.654C1524.48,522.801 1534.68,533.475 1547.23,533.475C1548.32,533.475 1549.39,533.395 1550.44,533.211Z" style="fill:rgb(127,122,126);"/>
        </g>
        <g transform="matrix(1.21242,0,0,2.37879,-271.341,-709.894)">
            <path d="M1530.7,485.892C1532.38,485.55 1534.11,485.373 1535.89,485.373C1550.31,485.373 1562.02,497.083 1562.02,511.508C1562.02,524.681 1552.26,535.59 1539.57,537.354C1547.59,532.206 1552.88,523.458 1552.88,513.542C1552.88,500.311 1543.47,489.161 1530.7,485.892Z" style="fill:rgb(189,184,188);"/>
        </g>
        <g transform="matrix(1.21242,0,0,2.37879,-271.341,-709.894)">
            <path d="M1530.7,485.892C1543.47,489.161 1552.88,500.311 1552.88,513.542C1552.88,523.458 1547.59,532.206 1539.57,537.354C1538.37,537.555 1537.14,537.643 1535.89,537.643C1521.46,537.643 1509.75,525.933 1509.75,511.508C1509.75,498.859 1518.76,488.297 1530.7,485.892Z" style="fill:rgb(189,184,188);"/>
        </g>
        <g transform="matrix(1.13226,0,0,2.23585,-140.534,-638.542)">
            <circle cx="1530.25" cy="512.354" r="10.909" style="fill:none;stroke:rgb(26,26,26);stroke-width:1px;"/>
        </g>
        <g transform="matrix(1.69476,0,0,2.23585,-998.34,-634.549)">
            <path d="M1529.4,493.937C1529.4,493.628 1529.23,493.377 1529.03,493.377L1528.28,493.377C1528.07,493.377 1527.9,493.628 1527.9,493.937L1527.9,507.877C1527.9,508.186 1528.07,508.437 1528.28,508.437L1529.03,508.437C1529.23,508.437 1529.4,508.186 1529.4,507.877L1529.4,493.937Z" style="fill:rgb(26,26,26);stroke:rgb(189,184,188);stroke-width:0.8px;"/>
        </g>
        <g transform="matrix(1.13226,0,0,2.23585,-140.692,-629.717)">
            <path d="M1357.48,518.251C1356.94,519.118 1356.65,520.141 1356.65,521.233C1356.65,524.504 1359.3,527.16 1362.57,527.16C1364.08,527.16 1365.46,526.595 1366.49,525.647C1365.48,527.414 1363.58,528.593 1361.4,528.593C1358.13,528.593 1355.47,525.937 1355.47,522.666C1355.47,520.903 1356.24,519.32 1357.48,518.251Z"/>
        </g>
        <g transform="matrix(1.13226,0,0,2.23585,-139.361,-632.92)">
            <path d="M1356.3,519.684C1357.34,518.736 1358.71,518.171 1360.22,518.171C1363.49,518.171 1366.15,520.827 1366.15,524.098C1366.15,525.19 1365.85,526.213 1365.32,527.08C1364.28,528.027 1362.91,528.593 1361.4,528.593C1358.13,528.593 1355.47,525.937 1355.47,522.666C1355.47,521.574 1355.77,520.55 1356.3,519.684Z" style="fill:rgb(127,124,131);"/>
        </g>
        <g transform="matrix(4.35775e-17,1.40533,-0.711674,8.60518e-17,1705.69,-1200.4)">
            <path d="M1264.33,429.959L1269.7,435.328L1267.51,437.518L1258.4,428.41L1267.51,419.303L1269.7,421.493L1264.33,426.862L1304.63,426.862L1304.63,429.959L1264.33,429.959Z"/>
        </g>
        <g transform="matrix(4.35775e-17,-1.40533,0.711674,8.60518e-17,1096.33,2277.06)">
            <path d="M1264.33,429.959L1269.7,435.328L1267.51,437.518L1258.4,428.41L1267.51,419.303L1269.7,421.493L1264.33,426.862L1304.63,426.862L1304.63,429.959L1264.33,429.959Z"/>
        </g>
        <g transform="matrix(1.13226,0,0,2.23585,-137.48,-630.564)">
            <rect x="810.165" y="470.003" width="383.123" height="79.054" style="fill:rgb(218,176,8);"/>
        </g>
        <g transform="matrix(1.13226,0,0,2.23585,-137.802,-630.564)">
            <rect x="744.747" y="465.23" width="33.889" height="79.38" style="fill:rgb(38,38,38);"/>
        </g>
        <g transform="matrix(1.13226,0,0,2.23585,-137.802,-630.564)">
            <rect x="754.163" y="474.374" width="4.336" height="61.356" style="fill:rgb(38,38,38);"/>
        </g>
        <g transform="matrix(1.13226,0,0,2.23585,-137.802,-630.564)">
            <rect x="764.197" y="474.374" width="4.336" height="61.356" style="fill:rgb(38,38,38);"/>
        </g>
        <g transform="matrix(1.13226,0,0,2.23585,-184.101,-630.503)">
            <rect x="795.054" y="474.347" width="4.336" height="61.356" style="fill:rgb(59,59,59);"/>
        </g>
        <g transform="matrix(1.13226,0,0,2.23585,-172.739,-630.503)">
            <rect x="795.054" y="474.347" width="4.336" height="61.356" style="fill:rgb(59,59,59);"/>
        </g>
        <g transform="matrix(1.13226,0,0,2.23585,-137.48,-632.263)">
            <rect x="351.954" y="472.783" width="84.895" height="73.998" style="fill:rgb(104,100,101);"/>
        </g>
        <g transform="matrix(1.13226,0,0,2.23585,52.9981,-632.263)">
            <rect x="351.954" y="472.783" width="84.895" height="73.998" style="fill:rgb(46,112,64);"/>
        </g>
        <g transform="matrix(1.13226,0,0,2.23585,175.554,-632.263)">
            <rect x="351.954" y="472.783" width="84.895" height="73.998" style="fill:rgb(46,112,64);"/>
        </g>
        <g transform="matrix(1.13226,0,0,2.23585,-137.48,-630.564)">
            <path d="M414.169,485.403L414.169,476.089L373.143,476.089L373.143,485.403L362.117,485.403L362.117,531.675L373.143,531.675L373.143,541.906L414.169,541.906L414.169,531.675L423.383,531.675L423.383,485.403L414.169,485.403Z" style="fill:rgb(58,57,55);"/>
        </g>
        <g transform="matrix(1.13226,0,0,2.23585,52.9981,-630.564)">
            <path d="M414.169,485.403L414.169,476.089L373.143,476.089L373.143,485.403L362.117,485.403L362.117,531.675L373.143,531.675L373.143,541.906L414.169,541.906L414.169,531.675L423.383,531.675L423.383,485.403L414.169,485.403Z" style="fill:rgb(17,66,32);"/>
        </g>
        <g transform="matrix(1.13226,0,0,2.23585,175.554,-630.564)">
            <path d="M414.169,485.403L414.169,476.089L373.143,476.089L373.143,485.403L362.117,485.403L362.117,531.675L373.143,531.675L373.143,541.906L414.169,541.906L414.169,531.675L423.383,531.675L423.383,485.403L414.169,485.403Z" style="fill:rgb(17,66,32);"/>
        </g>
        <g transform="matrix(1.13226,0,0,2.23585,-137.48,-630.564)">
            <path d="M873.602,482.543L873.602,474.95L844.281,474.95L844.281,482.543L838.806,482.543L838.806,493.894L823.055,493.894L823.055,504.912L818.42,504.912L818.42,525.359L823.055,525.359L823.055,537.163L895.067,537.163L895.067,525.359L899.964,525.359L899.964,504.912L895.067,504.912L895.067,493.894L878.112,493.894L878.112,482.543L873.602,482.543Z" style="fill:rgb(190,144,6);"/>
        </g>
        <g transform="matrix(1.13226,0,0,2.23585,-30.594,-630.564)">
            <path d="M873.602,482.543L873.602,474.95L844.281,474.95L844.281,482.543L838.806,482.543L838.806,493.894L823.055,493.894L823.055,504.912L818.42,504.912L818.42,525.359L823.055,525.359L823.055,537.163L895.067,537.163L895.067,525.359L899.964,525.359L899.964,504.912L895.067,504.912L895.067,493.894L878.112,493.894L878.112,482.543L873.602,482.543Z" style="fill:rgb(190,144,6);"/>
        </g>
        <g transform="matrix(1.13226,0,0,2.23585,76.3086,-630.564)">
            <path d="M873.602,482.543L873.602,474.95L844.281,474.95L844.281,482.543L838.806,482.543L838.806,493.894L823.055,493.894L823.055,504.912L818.42,504.912L818.42,525.359L823.055,525.359L823.055,537.163L895.067,537.163L895.067,525.359L899.964,525.359L899.964,504.912L895.067,504.912L895.067,493.894L878.112,493.894L878.112,482.543L873.602,482.543Z" style="fill:rgb(190,144,6);"/>
        </g>
        <g transform="matrix(1.13226,0,0,2.23585,182.654,-630.564)">
            <path d="M873.602,482.543L873.602,474.95L844.281,474.95L844.281,482.543L838.806,482.543L838.806,493.894L823.055,493.894L823.055,504.912L818.42,504.912L818.42,525.359L823.055,525.359L823.055,537.163L895.067,537.163L895.067,525.359L899.964,525.359L899.964,504.912L895.067,504.912L895.067,493.894L878.112,493.894L878.112,482.543L873.602,482.543Z" style="fill:rgb(190,144,6);"/>
        </g>
        <g transform="matrix(1.13226,0,0,2.23585,-139.616,-630.296)">
            <rect x="1220.35" y="469.334" width="98.878" height="80.438" style="fill:rgb(158,55,62);"/>
        </g>
        <g transform="matrix(1.13226,0,0,2.23585,-137.393,-629.599)">
            <rect x="1397.43" y="479.239" width="60.004" height="70.023" style="fill:rgb(30,30,30);"/>
        </g>
        <g transform="matrix(1.13226,0,0,2.23585,-213.487,-635.494)">
            <circle cx="1494.1" cy="517.297" r="12.827"/>
        </g>
        <g transform="matrix(1.13226,0,0,2.23585,327.216,-630.564)">
            <path d="M873.602,482.543L873.602,474.95L844.281,474.95L844.281,482.543L838.806,482.543L838.806,493.894L823.055,493.894L823.055,504.912L818.42,504.912L818.42,525.359L823.055,525.359L823.055,537.163L895.067,537.163L895.067,525.359L899.964,525.359L899.964,504.912L895.067,504.912L895.067,493.894L878.112,493.894L878.112,482.543L873.602,482.543Z" style="fill:rgb(135,47,53);"/>
        </g>
        <g transform="matrix(1.13226,0,0,2.23585,-137.161,-631.771)">
            <rect x="813.809" y="476.827" width="20.224" height="12.069" style="fill:rgb(215,188,121);"/>
        </g>
        <g transform="matrix(1.13226,0,0,2.23585,-30.2245,-631.771)">
            <rect x="813.809" y="476.827" width="20.224" height="12.069" style="fill:rgb(215,188,121);"/>
        </g>
        <g transform="matrix(1.13226,0,0,2.23585,76.4247,-631.771)">
            <rect x="813.809" y="476.827" width="20.224" height="12.069" style="fill:rgb(215,188,121);"/>
        </g>
        <g transform="matrix(1.13226,0,0,2.23585,183.707,-631.771)">
            <rect x="813.809" y="476.827" width="20.224" height="12.069" style="fill:rgb(215,188,121);"/>
        </g>
        <g transform="matrix(1.13226,0,0,2.23585,328.118,-633.562)">
            <rect x="813.809" y="476.827" width="20.224" height="12.069" style="fill:rgb(215,188,121);"/>
        </g>
        <g transform="matrix(1.13226,0,0,2.23585,261.371,-631.771)">
            <rect x="813.809" y="476.827" width="20.224" height="12.069" style="fill:rgb(151,184,127);"/>
        </g>
        <g transform="matrix(1.13226,0,0,2.23585,405.678,-631.771)">
            <rect x="813.809" y="476.827" width="20.224" height="12.069" style="fill:rgb(151,184,127);"/>
        </g>
        <g transform="matrix(1.13226,0,0,2.23585,155.242,-631.771)">
            <rect x="813.809" y="476.827" width="20.224" height="12.069" style="fill:rgb(151,184,127);"/>
        </g>
        <g transform="matrix(1.13226,0,0,2.23585,47.3,-631.771)">
            <rect x="813.809" y="476.827" width="20.224" height="12.069" style="fill:rgb(151,184,127);"/>
        </g>
        <g transform="matrix(1.13226,0,0,2.23585,-59.4085,-631.771)">
            <rect x="813.809" y="476.827" width="20.224" height="12.069" style="fill:rgb(151,184,127);"/>
        </g>
    </g>
</svg>
