<?xml version="1.0" encoding="UTF-8" standalone="no"?>
<!DOCTYPE svg PUBLIC "-//W3C//DTD SVG 1.1//EN" "http://www.w3.org/Graphics/SVG/1.1/DTD/svg11.dtd">
<svg width="100%" height="100%" viewBox="0 0 76 539" version="1.1" xmlns="http://www.w3.org/2000/svg" xmlns:xlink="http://www.w3.org/1999/xlink" xml:space="preserve" xmlns:serif="http://www.serif.com/" style="fill-rule:evenodd;clip-rule:evenodd;stroke-linejoin:round;stroke-miterlimit:2;">
    <g id="Artboard1" transform="matrix(0.151899,0,0,0.835502,-85.4562,-46.1407)">
        <rect x="562.586" y="55.225" width="498.363" height="644.94" style="fill:none;"/>
        <g transform="matrix(6.73822,0,0,1.19689,-7158.15,-581.875)">
            <rect x="1152.65" y="543.453" width="59.722" height="84.314" style="fill:rgb(46,112,64);"/>
        </g>
        <g transform="matrix(2.71078,0,0,7.46669,-2395.65,-3995.94)">
            <rect x="1152.65" y="543.453" width="59.722" height="84.314" style="fill:rgb(46,112,64);"/>
        </g>
        <g transform="matrix(6.75918,0,0,1.19689,-7192.37,-581.875)">
            <rect x="1158.14" y="626.272" width="51.713" height="13.041" style="fill:rgb(46,112,64);"/>
        </g>
        <g transform="matrix(5.38115,0,0,0.978324,-5560.67,-430.654)">
            <rect x="1158.14" y="626.272" width="51.713" height="13.041" style="fill:rgb(46,112,64);"/>
        </g>
        <g transform="matrix(4.58978,0,0,0.978324,-4622.93,-420.458)">
            <rect x="1158.14" y="626.272" width="51.713" height="13.041" style="fill:rgb(46,112,64);"/>
        </g>
    </g>
</svg>
