<?xml version="1.0" encoding="UTF-8" standalone="no"?>
<!DOCTYPE svg PUBLIC "-//W3C//DTD SVG 1.1//EN" "http://www.w3.org/Graphics/SVG/1.1/DTD/svg11.dtd">
<svg width="100%" height="100%" viewBox="0 0 74 542" version="1.1" xmlns="http://www.w3.org/2000/svg" xmlns:xlink="http://www.w3.org/1999/xlink" xml:space="preserve" xmlns:serif="http://www.serif.com/" style="fill-rule:evenodd;clip-rule:evenodd;stroke-linejoin:round;stroke-miterlimit:2;">
    <g id="Artboard1" transform="matrix(0.147511,0,0,0.840364,-82.9877,-46.4092)">
        <rect x="562.586" y="55.225" width="498.363" height="644.94" style="fill:none;"/>
        <g transform="matrix(6.93865,0,0,1.18996,-7390.73,-574.458)">
            <rect x="1152.65" y="543.453" width="59.722" height="84.314" style="fill:rgb(218,176,8);"/>
        </g>
        <g transform="matrix(2.79141,0,0,7.35404,-2486.57,-3931.03)">
            <rect x="1152.65" y="543.453" width="59.722" height="84.314" style="fill:rgb(218,176,8);"/>
        </g>
        <g transform="matrix(6.96023,0,0,1.18996,-7425.97,-574.458)">
            <rect x="1158.14" y="626.272" width="51.713" height="13.041" style="fill:rgb(218,176,8);"/>
        </g>
        <g transform="matrix(5.54121,0,0,0.972664,-5745.73,-424.112)">
            <rect x="1158.14" y="626.272" width="51.713" height="13.041" style="fill:rgb(218,176,8);"/>
        </g>
        <g transform="matrix(4.7263,0,0,0.972664,-4780.1,-413.975)">
            <rect x="1158.14" y="626.272" width="51.713" height="13.041" style="fill:rgb(218,176,8);"/>
        </g>
    </g>
</svg>
