<?xml version="1.0" encoding="UTF-8" standalone="no"?>
<!DOCTYPE svg PUBLIC "-//W3C//DTD SVG 1.1//EN" "http://www.w3.org/Graphics/SVG/1.1/DTD/svg11.dtd">
<svg width="100%" height="100%" viewBox="0 0 76 539" version="1.1" xmlns="http://www.w3.org/2000/svg" xmlns:xlink="http://www.w3.org/1999/xlink" xml:space="preserve" xmlns:serif="http://www.serif.com/" style="fill-rule:evenodd;clip-rule:evenodd;stroke-linejoin:round;stroke-miterlimit:2;">
    <g id="Artboard1" transform="matrix(0.151606,0,0,0.835213,-85.2913,-46.1248)">
        <rect x="562.586" y="55.225" width="498.363" height="644.94" style="fill:none;"/>
        <g transform="matrix(6.75126,0,0,1.1973,-7158.63,-582.319)">
            <rect x="1152.65" y="543.453" width="59.722" height="84.314" style="fill:rgb(158,55,62);"/>
        </g>
        <g transform="matrix(2.71602,0,0,7.37424,-2386.92,-3945.92)">
            <rect x="1152.65" y="543.453" width="59.722" height="84.314" style="fill:rgb(158,55,62);"/>
        </g>
        <g transform="matrix(6.77226,0,0,1.1973,-7192.91,-582.319)">
            <rect x="1158.14" y="626.272" width="51.713" height="13.041" style="fill:rgb(158,55,62);"/>
        </g>
        <g transform="matrix(5.39156,0,0,0.978662,-5558.06,-431.045)">
            <rect x="1158.14" y="626.272" width="51.713" height="13.041" style="fill:rgb(158,55,62);"/>
        </g>
        <g transform="matrix(4.59865,0,0,0.978662,-4618.5,-420.846)">
            <rect x="1158.14" y="626.272" width="51.713" height="13.041" style="fill:rgb(158,55,62);"/>
        </g>
    </g>
</svg>
